<?xml version="1.0" standalone="no"?>
<!DOCTYPE svg PUBLIC "-//W3C//DTD SVG 1.1//EN" "http://www.w3.org/Graphics/SVG/1.1/DTD/svg11.dtd" >
<svg xmlns="http://www.w3.org/2000/svg" xmlns:xlink="http://www.w3.org/1999/xlink" version="1.1">
<metadata></metadata>
<defs>
<font id="solid_antique_romanregular" horiz-adv-x="797" >
<font-face units-per-em="2048" ascent="1638" descent="-410" />
<missing-glyph horiz-adv-x="379" />
<glyph horiz-adv-x="0" />
<glyph unicode="&#xd;" horiz-adv-x="379" />
<glyph unicode=" "  horiz-adv-x="379" />
<glyph unicode="&#x09;" horiz-adv-x="379" />
<glyph unicode="&#xa0;" horiz-adv-x="379" />
<glyph unicode="!" horiz-adv-x="266" d="M72 31q0 24 18.5 42.5t42.5 18.5q25 0 43.5 -18.5t18.5 -42.5q0 -25 -18.5 -43.5t-43.5 -18.5q-24 0 -42.5 18.5t-18.5 43.5zM72 1491h118l-22 -1155h-72z" />
<glyph unicode="&#x22;" horiz-adv-x="2048" d="M256 260q0 123 83 196q77 68 193 68q154 0 346 -111q161 -104 322 -207q187 -112 326 -112q89 0 151 59q66 61 66 156q0 67 -37 119q-45 64 -123 64q-62 0 -103 -46q-36 -40 -36 -86q0 -60 41 -86q8 60 55 60t47 -55q0 -54 -59 -54q-47 0 -78 33q-35 36 -35 98 q0 63 47 112q51 54 127 54q84 0 142 -59q61 -63 61 -162q0 -122 -83 -196q-77 -68 -193 -68q-163 0 -358 111q-160 104 -321 207q-183 112 -315 112q-89 0 -151 -58q-66 -62 -66 -157q0 -67 37 -119q45 -63 123 -63q62 0 103 45q36 40 36 86q0 61 -41 86q-8 -60 -55 -60 t-47 56q0 53 59 53q47 0 78 -33q35 -36 35 -98q0 -63 -47 -112q-51 -54 -127 -54q-84 0 -142 59q-61 63 -61 162z" />
<glyph unicode="#" d="M84 315l12 58h140l40 217h-139l13 57h139l67 346h29l-68 -346h242l68 346h28l-67 -346h139l-12 -57h-140l-40 -217h139l-12 -58h-140l-65 -346h-29l66 346h-242l-66 -346h-28l65 346h-139zM264 373h242l41 217h-242z" />
<glyph unicode="$" d="M147 754q0 103 84 169q56 44 115 56v127h27v-119q34 6 59 6q28 0 62 -6v119h26v-125q14 -3 40 -19q23 -14 30 -14q26 0 80 45v-239h-15q-37 134 -135 200v-424q223 -107 223 -299q0 -218 -223 -254v-174h-26v170q-25 -4 -37 -4q-31 0 -84 8v-174h-27v181q-5 1 -49 16 q-30 10 -49 10q-45 0 -86 -41v213h14q27 -122 170 -178v504q-199 96 -199 246zM244 791q0 -132 102 -175v338q-102 -48 -102 -163zM373 -2q30 -8 65 -8q31 0 56 8v436q-39 19 -121 60v-496zM373 602q28 -15 121 -59v422q-30 8 -62 8q-29 0 -59 -8v-363zM520 8 q127 67 127 199q0 81 -51 148q-36 47 -76 67v-414z" />
<glyph unicode="%" horiz-adv-x="2048" d="M256 301q0 99 61 162q58 59 142 59q76 0 127 -54q47 -49 47 -112q0 -62 -35 -98q-31 -33 -78 -33q-59 0 -59 54q0 55 47 55t55 -60q41 26 41 86q0 46 -36 85q-41 44 -103 44q-78 0 -123 -62q-37 -52 -37 -118q0 -95 66 -156q62 -59 151 -59q139 0 326 112 q161 103 322 207q192 111 346 111q116 0 193 -68q83 -73 83 -196q0 -99 -61 -162q-58 -59 -142 -59q-76 0 -127 54q-47 49 -47 112q0 62 35 98q31 33 78 33q59 0 59 -53q0 -56 -47 -56t-55 60q-41 -25 -41 -86q0 -46 36 -85q41 -44 103 -44q78 0 123 62q37 52 37 118 q0 95 -66 157q-62 58 -151 58q-132 0 -315 -112q-161 -103 -321 -207q-195 -111 -358 -111q-116 0 -193 68q-83 74 -83 196z" />
<glyph unicode="&#x26;" horiz-adv-x="985" d="M57 260q0 221 269 365l-107 149q-65 92 -65 178q0 122 72 196q67 71 165 71q85 0 144 -63q57 -59 57 -140q0 -51 -35 -90q-29 -33 -51 -33q-8 0 -8 6q0 -2 20.5 37t20.5 80q0 74 -47 128t-119 54q-69 0 -117.5 -51t-48.5 -123q0 -42 57 -123l373 -526q64 311 170 311 q59 0 59 -61q0 -23 -17.5 -39.5t-39.5 -16.5q-33 1 -48.5 27.5l-15.5 26.5q-14 0 -41 -71q-32 -81 -53 -198l238 -334h67v-20h-307v20h107l-140 195q-19 -78 -85 -139q-82 -76 -201 -76q-108 0 -190.5 78t-82.5 182zM135 348q0 -125 74 -204q69 -74 170 -74q160 0 223 166 l-262 368q-205 -105 -205 -256z" />
<glyph unicode="'" horiz-adv-x="1214" d="M55 459q0 210 139 357q96 101 236 155q-103 35 -145 70q-78 64 -78 184q0 266 342 266q101 0 169 -37q77 -42 77 -119q0 -71 -62 -71q-51 0 -51 53q0 29 27.5 48.5t27.5 27.5q0 28 -56 52q-59 25 -132 25q-91 0 -158 -59q-76 -69 -76 -186q0 -193 297 -248v-10 q-184 -28 -306 -148q-142 -140 -142 -360q0 -187 112 -325q117 -144 289 -144q149 0 234.5 88t85.5 239q0 134 -72 277h-88q-195 0 -195 -133q0 -99 66 -99q8 0 23 25t47 25q51 0 51 -50q0 -25 -22 -42t-50 -17q-59 0 -98 48q-37 45 -37 106q0 231 309 231h162 q178 0 178 131q0 99 -63 99q-9 0 -24.5 -27t-45.5 -27q-51 0 -51 49q0 25 21.5 42.5t50.5 17.5q57 0 96 -47q37 -43 37 -103q0 -102 -66 -165.5t-178 -63.5h-68q86 -151 86 -277q0 -140 -96 -238q-108 -110 -293 -110q-213 0 -361.5 143t-148.5 347z" />
<glyph unicode="(" horiz-adv-x="606" d="M90 596q0 427 196 797q121 229 238 329l21 -14q-134 -190 -200 -349q-142 -340 -142 -763t142 -763q66 -159 200 -349l-21 -14q-117 100 -238 329q-196 370 -196 797z" />
<glyph unicode=")" horiz-adv-x="606" d="M61 -516q134 190 201 349q141 340 141 763t-141 763q-67 159 -201 349l21 14q117 -100 239 -329q195 -370 195 -797t-195 -797q-122 -229 -239 -329z" />
<glyph unicode="*" horiz-adv-x="1100" d="M96 1163q0 47 33 80t80 33q43 0 94 -50q89 -86 137 -120q11 -9 49 -21l50 -14v45q0 108 -49.5 179.5t-49.5 119.5q0 46 32 78.5t77 32.5t76.5 -32.5t31.5 -78.5q0 -48 -49 -119.5t-49 -179.5v-45l49 14q18 5 49 21q48 34 138 120q51 50 94 50q47 0 79.5 -33t32.5 -80 q0 -46 -29 -78t-73 -32q-35 0 -105.5 11t-93.5 11q-50 0 -88 -10l-53 -14l27 -37q7 -12 24 -31q39 -31 186 -113q70 -40 70 -104q0 -51 -35 -85q-31 -32 -71 -32q-74 0 -99 58q-7 17 -28 138q-17 102 -62 163l-22 30l-23 -30q-44 -61 -62 -163q-20 -121 -27 -138 q-25 -58 -99 -58q-40 0 -72 32q-35 34 -35 85q0 64 71 104q147 82 185 113q6 5 25 31l27 37l-54 14q-38 10 -88 10q-22 0 -93 -11t-105 -11q-44 0 -73.5 32t-29.5 78z" />
<glyph unicode="+" horiz-adv-x="1251" d="M72 1028q0 104 76 168q75 61 194 61q92 0 156 -35q69 -37 69 -98q0 -26 -17.5 -46.5t-41.5 -20.5q-49 0 -49 51q0 48 53 53q-38 76 -170 76q-78 0 -135 -62t-57 -147q0 -81 64.5 -140t154.5 -59q76 0 147 68t68 68q4 0 4 -9q0 -27 -59 -82q-78 -75 -187 -75 q-119 0 -194.5 62.5t-75.5 166.5zM336 0l561 1266h31l-561 -1266h-31zM666 209q0 104 76 168q75 61 192 61t192 -61q76 -64 76 -168t-75.5 -166.5t-192.5 -62.5t-192.5 62.5t-75.5 166.5zM743 209q0 -85 57 -147t134 -62q78 0 134 62t56 147t-56 147t-134 62 q-77 0 -134 -62.5t-57 -146.5z" />
<glyph unicode="," horiz-adv-x="379" d="M121 61q0 62 61 62q31 0 53.5 -27.5t22.5 -68.5q0 -107 -98 -127q43 43 43 75q0 13 -4 21q-78 0 -78 65z" />
<glyph unicode="-" horiz-adv-x="530" d="M53 238v108h424v-108h-424z" />
<glyph unicode="." horiz-adv-x="379" d="M129 61q0 25 18.5 43.5t42.5 18.5q25 0 43.5 -18.5t18.5 -43.5q0 -24 -18.5 -42.5t-43.5 -18.5q-24 0 -42.5 18.5t-18.5 42.5z" />
<glyph unicode="/" horiz-adv-x="455" d="M82 0l213 1491h78l-213 -1491h-78z" />
<glyph unicode="0" d="M63 481q0 204 91 353q96 159 243 159q148 0 245 -159q91 -149 91 -353q0 -203 -91 -352q-97 -160 -245 -160q-147 0 -243 160q-91 149 -91 352zM172 481q0 -204 58 -342q63 -149 167 -149q105 0 169 149q59 138 59 342t-59 343q-64 149 -169 149q-104 0 -167 -149 q-58 -138 -58 -343z" />
<glyph unicode="1" horiz-adv-x="418" d="M31 0v20h129v922h-115v21h223v-943h129v-20h-366z" />
<glyph unicode="2" d="M63 764q0 87 94.5 158t213.5 71q132 0 229 -71q105 -77 105 -199q0 -117 -70 -188q-48 -49 -167 -103q-149 -67 -200 -100q-111 -73 -151 -223h428q88 0 149 65q-13 -58 -50 -113q-40 -61 -75 -61h-501q31 216 169 336q119 79 238 157q121 87 121 230q0 99 -71 168 q-74 72 -185 72q-88 0 -165 -55q-83 -59 -83 -134q0 -14 6 -14q4 0 20 13t34 13q71 0 71 -65q0 -64 -71 -64q-89 0 -89 107z" />
<glyph unicode="3" d="M72 780l106 183h500l-277 -383q28 8 52 8q125 0 210 -85t85 -208q0 -135 -112.5 -230.5t-277.5 -95.5q-125 0 -204 57q-76 54 -76 132q0 34 20.5 61t51.5 27q61 0 61 -62q0 -47 -68 -47h-20q4 -48 57 -93q65 -54 164 -54q125 0 210 88t85 217q0 118 -70 201 q-61 71 -123 71q-26 0 -59 -8l-63 -92l-21 10l272 377h-335q-64 0 -92 -16q-11 -6 -64 -58h-12z" />
<glyph unicode="4" d="M14 150l471 813h90v-793q73 0 110 37q33 33 52 115h13v-172h-175v-130h127v-20h-380v20h145v130h-453zM49 170h418v721z" />
<glyph unicode="5" d="M96 156q0 33 21.5 57.5t54.5 24.5q61 0 61 -60q0 -53 -79 -67q65 -121 202 -121q113 0 187.5 83t74.5 212q0 123 -79.5 211t-194.5 88q-100 0 -221 -97v476h577q-32 -65 -55 -82q-36 -27 -121 -27h-381v-322q108 76 232 76q145 0 248.5 -91t103.5 -224 q0 -139 -106.5 -231.5t-262.5 -92.5q-100 0 -179 54q-83 55 -83 133z" />
<glyph unicode="6" d="M47 481q0 234 134 382q118 130 263 130q98 0 177 -57q84 -62 84 -152q0 -30 -23 -52.5t-53 -22.5q-62 0 -62 67q0 57 49 62q-35 135 -165 135q-295 0 -295 -492q0 -225 59 -354q63 -137 182 -137q100 0 160 95q53 85 53 202q0 106 -59.5 201.5t-128.5 95.5 q-74 0 -131 -80q6 33 37 62q42 38 104 38q118 0 202.5 -91t84.5 -226t-91 -226.5t-220 -91.5q-132 0 -239 130q-122 149 -122 382z" />
<glyph unicode="7" horiz-adv-x="758" d="M68 797l88 166h579q-168 -274 -256 -458q-110 -229 -190 -505h-144q56 183 273 521q113 166 227 333h-532l-33 -61z" />
<glyph unicode="8" horiz-adv-x="834" d="M78 242q0 109 93 169q67 43 138 46q-141 -92 -141 -234q0 -96 74 -164.5t176 -68.5q97 0 171 59q77 63 77 154q0 128 -144 199q-134 55 -268 111q-143 77 -143 218q0 119 100 193q95 69 235 69q123 0 206 -60q89 -65 89 -175q0 -184 -223 -193q133 83 133 193 q0 88 -66 151.5t-153 63.5q-94 0 -162.5 -56.5t-68.5 -138.5q0 -115 144 -179q133 -54 267 -109q144 -83 144 -248q0 -118 -99 -197q-93 -76 -221 -76q-140 0 -243 69q-115 77 -115 204z" />
<glyph unicode="9" d="M59 676q0 135 91.5 226t220.5 91q131 0 238 -130q122 -148 122 -382q0 -233 -134 -382q-118 -130 -263 -130q-98 0 -176 58q-84 62 -84 151q0 31 22.5 53.5t53.5 22.5q61 0 61 -68q0 -57 -49 -61q35 -135 166 -135q295 0 295 491q0 225 -60 354q-63 138 -182 138 q-100 0 -160 -96q-53 -85 -53 -201q0 -107 60 -202t128 -95q74 0 131 80q-6 -33 -37 -62q-42 -39 -104 -39q-118 0 -202.5 91.5t-84.5 226.5z" />
<glyph unicode=":" horiz-adv-x="379" d="M129 61q0 25 18.5 43.5t42.5 18.5q25 0 43.5 -18.5t18.5 -43.5q0 -24 -18.5 -42.5t-43.5 -18.5q-24 0 -42.5 18.5t-18.5 42.5zM129 492q0 24 18.5 42.5t42.5 18.5q25 0 43.5 -18.5t18.5 -42.5q0 -25 -18.5 -43.5t-43.5 -18.5q-24 0 -42.5 18.5t-18.5 43.5z" />
<glyph unicode=";" horiz-adv-x="379" d="M121 61q0 62 61 62q31 0 53.5 -27.5t22.5 -68.5q0 -107 -98 -127q43 43 43 75q0 13 -4 21q-78 0 -78 65zM129 492q0 24 18.5 42.5t42.5 18.5q25 0 43.5 -18.5t18.5 -42.5q0 -25 -18.5 -43.5t-43.5 -18.5q-24 0 -42.5 18.5t-18.5 43.5z" />
<glyph unicode="&#x3c;" horiz-adv-x="721" d="M-100 938v20h125v512h-125v21h233v-129q11 45 66 90q71 59 170 59q45 0 78 -27q36 -30 36 -73q0 -74 -67 -74q-58 0 -58 54q0 47 31 61q0 29 -61 29q-60 0 -124 -58q-71 -64 -71 -141v-324h125v-20h-358zM483 999q0 25 18.5 43.5t43.5 18.5q24 0 42.5 -18.5t18.5 -43.5 q0 -24 -18.5 -42.5t-42.5 -18.5q-25 0 -43.5 18.5t-18.5 42.5z" />
<glyph unicode="=" horiz-adv-x="1479" d="M-100 938v20h125v512h-125v21h233v-129q11 45 66 90q71 59 170 59q45 0 78 -27q36 -30 36 -73q0 -74 -67 -74q-58 0 -58 54q0 47 31 61q0 29 -61 29q-60 0 -124 -58q-71 -64 -71 -141v-324h125v-20h-358zM557 907v205h21q40 -77 124 -128q91 -56 195 -56q174 0 174 127 q0 81 -131 120l-242 58q-131 40 -131 127q0 80 80 125q66 37 156 37q55 0 130 -14.5t99 -14.5q33 0 98 29v-150h-20q-129 129 -299 129q-55 0 -93 -26q-42 -28 -42 -76q0 -62 130 -96q122 -31 243 -61q131 -47 131 -142q0 -103 -96 -153q-75 -40 -187 -40q-78 0 -148 25.5 t-77 25.5q-60 0 -115 -51zM1241 969q0 24 18.5 42.5t43.5 18.5q24 0 42.5 -18.5t18.5 -42.5q0 -25 -18.5 -43.5t-42.5 -18.5q-25 0 -43.5 18.5t-18.5 43.5z" />
<glyph unicode="&#x3e;" horiz-adv-x="872" d="M-68 907v205h21q41 -77 124 -128q91 -56 195 -56q174 0 174 127q0 81 -130 120q-121 29 -243 58q-130 40 -130 127q0 80 79 125q66 37 156 37q55 0 130 -14.5t100 -14.5q32 0 98 29v-150h-21q-129 129 -299 129q-54 0 -93 -26q-42 -28 -42 -76q0 -62 131 -96 q121 -31 242 -61q131 -47 131 -142q0 -103 -96 -153q-75 -40 -187 -40q-78 0 -147.5 25.5t-77.5 25.5q-59 0 -115 -51zM616 969q0 24 18.5 42.5t43.5 18.5q24 0 42.5 -18.5t18.5 -42.5q0 -25 -18.5 -43.5t-42.5 -18.5q-25 0 -43.5 18.5t-18.5 43.5z" />
<glyph unicode="?" horiz-adv-x="909" d="M121 1239q0 132 108 214q91 69 201 69q129 0 237 -83q134 -103 134 -284q0 -110 -76 -198q-32 -38 -156 -136q-98 -79 -127 -141q-16 -35 -16 -123v-238h-78v314q0 108 84 195l154 148q84 97 84 230q0 121 -63 205q-67 90 -177 90q-96 0 -176 -68q-74 -64 -74 -124 q0 -25 6 -37q37 6 39 6q39 0 68 -24.5t29 -65.5q0 -37 -29 -60.5t-68 -23.5q-104 0 -104 135zM322 31q0 24 18 42.5t43 18.5t43 -18.5t18 -42.5q0 -25 -18 -43.5t-43 -18.5t-43 18.5t-18 43.5z" />
<glyph unicode="@" horiz-adv-x="1366" d="M-262 -502q0 70 57 70q51 0 51 -51q0 -26 -18 -40.5t-18 -23.5q0 -35 51 -35q140 0 211 236l551 1827q9 22 22 22q10 0 21 -20l532 -1463h109v-20h-361v20h129l-174 480h-551l-256 -852q-75 -250 -239 -250q-44 0 -80.5 29t-36.5 71zM358 520h535l-291 811z" />
<glyph unicode="A" horiz-adv-x="1403" d="M37 0v20h72q82 0 143 94q48 75 98 242l340 1125q7 22 23 22q10 0 20 -20l527 -1463h108v-20h-354v20h127l-172 480h-549l-58 -187q-34 -113 -34 -155q0 -138 121 -138h69v-20h-481zM426 520h535l-291 813z" />
<glyph unicode="B" horiz-adv-x="1176" d="M55 0v20h138v1450h-138v21h520q173 0 259 -39q133 -59 133 -221q0 -180 -232 -252q134 -51 233 -152q140 -142 140 -331q0 -219 -143 -356q-146 -140 -390 -140h-520zM301 20h274q147 0 281 137q143 148 143 339q0 193 -137 337q-131 136 -289 136h-272v-949zM301 989 h272q285 0 285 242q0 110 -69 173q-74 66 -214 66h-274v-481z" />
<glyph unicode="C" horiz-adv-x="1176" d="M86 745q0 323 158 550q162 231 401 231q61 0 143.5 -28t96.5 -28q37 0 153 52v-297h-14q-35 102 -147 189q-118 91 -232 91q-190 0 -321 -237q-125 -225 -125 -523q0 -296 125 -522q131 -237 321 -237q168 0 299 149q135 155 135 369q0 28 -17.5 83.5t-17.5 84.5 q0 18 13 18q43 0 43 -168q0 -230 -135.5 -393.5t-319.5 -163.5q-239 0 -401 231q-158 227 -158 549z" />
<glyph unicode="D" horiz-adv-x="1290" d="M39 0v20h137v1450h-137v21h569q265 0 427 -221q153 -209 153 -525q0 -318 -153 -526q-161 -219 -427 -219h-569zM285 20h323q221 0 354 239q117 209 117 486t-117 487q-134 238 -354 238h-323v-1450z" />
<glyph unicode="E" horiz-adv-x="1024" d="M33 0v20h137v1450h-137v21h874v-240h-20q-26 107 -63 151q-58 68 -181 68h-364v-677h311q149 0 164 163h20v-358h-20q-16 174 -164 174h-311v-752h325q227 0 291 281h20v-301h-882z" />
<glyph unicode="F" horiz-adv-x="985" d="M33 0v20h137v1450h-137v21h903v-301h-21q0 141 -43 202q-55 78 -200 78h-393v-497h337q149 0 164 164h21v-359h-21q-16 174 -164 174h-337v-932h159v-20h-405z" />
<glyph unicode="G" horiz-adv-x="1214" d="M63 745q0 324 160 550q164 231 410 231q98 0 182 -35t103 -35q55 0 120 66v-299h-20q-104 272 -352 272q-208 0 -353 -234q-137 -223 -137 -516q0 -295 130 -522q136 -237 331 -237q105 0 181.5 67t76.5 166v283q0 93 -33 148q-28 46 -65 46h-56v21h412v-21h-55 q-37 0 -64 -46q-30 -54 -30 -148v-283q0 -93 -114 -172q-117 -82 -261 -82q-239 0 -403 231q-163 228 -163 549z" />
<glyph unicode="H" horiz-adv-x="1139" d="M39 0v20h137v1450h-137v21h383v-21h-137v-528h569v-20h-569v-902h137v-20h-383zM717 0v20h137v1450h-137v21h383v-21h-137v-1450h137v-20h-383z" />
<glyph unicode="I" horiz-adv-x="455" d="M37 0v20h137v1450h-137v21h383v-21h-137v-1450h137v-20h-383z" />
<glyph unicode="J" horiz-adv-x="985" d="M35 246q0 32 21 57t50 25q64 0 64 -66q0 -67 -68 -67q-22 0 -22 -17q0 -70 79 -127q90 -65 232 -65q209 0 278 82q40 48 40 159v1243h-138v21h383v-21h-137v-1101q0 -404 -428 -404q-157 0 -255.5 77.5t-98.5 203.5z" />
<glyph unicode="K" horiz-adv-x="1176" d="M20 0v20h138v1450h-138v21h383v-21h-137v-907l596 740q35 43 35 90q0 77 -70 77h-65v21h371v-21h-43q-65 0 -211 -182l-301 -375l444 -893h111v-20h-336v20h106l-399 803l-238 -295v-508h137v-20h-383z" />
<glyph unicode="L" horiz-adv-x="909" d="M27 0v20h137v1450h-137v21h383v-21h-138v-1450h269q161 0 241 84q57 59 82 179h21v-283h-858z" />
<glyph unicode="M" horiz-adv-x="1669" d="M27 0v20h67q84 0 140 84q46 67 61 166l164 1116l-25 84h-162v21h263l296 -942l271 942h293v-21h-170l264 -1450h164v-20h-430v20h153l-258 1418l-321 -1116l-320 1011l-155 -1063q-6 -40 -6 -75q0 -175 141 -175h61v-20h-491z" />
<glyph unicode="N" horiz-adv-x="1251" d="M16 0v20h68q162 0 162 205v1088l-88 157h-119v21h242l688 -1247v1022q0 204 -162 204h-68v21h482v-21h-68q-164 0 -164 -204v-1301l-723 1311v-1051q0 -205 164 -205h68v-20h-482z" />
<glyph unicode="O" horiz-adv-x="1327" d="M84 745q0 323 164 550q167 231 416 231q248 0 415 -231q164 -227 164 -550q0 -322 -164 -549q-167 -231 -415 -231q-249 0 -416 231q-164 227 -164 549zM197 745q0 -296 130 -522q138 -237 337 -237q198 0 336 237q130 226 130 522q0 298 -130 523q-137 237 -336 237 q-200 0 -337 -237q-130 -225 -130 -523z" />
<glyph unicode="P" horiz-adv-x="1024" d="M35 0v20h137v1450h-137v21h579q134 0 239 -89q120 -102 120 -267t-120 -264q-104 -85 -239 -85h-333v-766h137v-20h-383zM281 807h292q120 0 203 86q88 93 88 242t-88 245q-84 90 -203 90h-292v-663z" />
<glyph unicode="Q" horiz-adv-x="1327" d="M84 745q0 323 164 550q167 231 416 231q248 0 415 -231q164 -227 164 -550q0 -292 -139 -512t-354 -260q124 -110 278 -110q76 0 148 35q76 37 110 98q8 -41 8 -62q0 -76 -81 -120q-70 -37 -164 -37q-139 0 -254 79q-45 31 -119 109q-254 0 -425 231q-167 226 -167 549z M197 745q0 -295 130 -522q137 -237 335 -237q-41 59 -41 82q0 6 12 6q-1 0 96 -80q176 44 290 260q111 213 111 491q0 298 -130 523q-137 237 -336 237q-200 0 -337 -237q-130 -225 -130 -523z" />
<glyph unicode="R" horiz-adv-x="1139" d="M14 0v20h138v1450h-138v21h580q133 0 238 -89q120 -102 120 -267q0 -159 -118 -261q-104 -88 -230 -88q0 -34 133 -79l277 -687h114v-20h-364v20h131l-307 766h-328v-766h137v-20h-383zM260 807h293q123 0 205 86q86 91 86 242q0 149 -89 245q-83 90 -202 90h-293v-663z " />
<glyph unicode="S" horiz-adv-x="1024" d="M70 -35v326h20q14 -106 118 -194q117 -101 275 -101q162 0 254 110q78 94 78 222q0 201 -192 334q-178 100 -356 201q-191 125 -191 311q0 152 104.5 252t268.5 100q94 0 175 -34t87 -34q55 0 123 68v-365h-21q-32 109 -101 201q-109 143 -255 143q-111 0 -192 -85 t-81 -208q0 -176 192 -297q178 -101 356 -201q192 -140 192 -362q0 -140 -89 -251q-110 -136 -305 -136q-110 0 -210 25.5t-115 25.5q-56 0 -88 -16q-4 -2 -47 -35z" />
<glyph unicode="T" horiz-adv-x="985" d="M31 1298v193h923v-193h-20q-16 66 -70 115q-64 57 -153 57h-164v-1450h137v-20h-383v20h137v1450h-164q-88 0 -153 -57q-54 -49 -70 -115h-20z" />
<glyph unicode="U" horiz-adv-x="1176" d="M63 1470v21h383v-21h-137v-1173q0 -116 29 -176q61 -125 246 -125q329 0 329 336v934q0 204 -161 204h-68v21h481v-21h-67q-164 0 -164 -204v-934q0 -366 -342 -367q-198 0 -299 97q-92 88 -92 239v1169h-138z" />
<glyph unicode="V" horiz-adv-x="1366" d="M18 1470v21h365v-21h-121l430 -1310l367 1095q18 56 18 80q0 61 -38 101q-34 34 -74 34h-78v21h448v-21h-71q-106 0 -181 -223l-426 -1282h-10l-493 1505h-136z" />
<glyph unicode="W" horiz-adv-x="1593" d="M23 1470v21h378v-21h-141l295 -1237l227 857l265 -859l268 1057q8 32 8 59q0 123 -145 123h-48v21h447v-21h-47q-129 0 -176 -188l-334 -1317h-10l-265 854l-225 -854h-10l-358 1505h-129z" />
<glyph unicode="X" horiz-adv-x="1139" d="M45 0v20h43q65 0 105 32q55 44 100 167l207 567l-250 684h-113v21h363v-21h-127l268 -735l197 543q20 56 20 84q0 108 -145 108h-43v21h438v-21h-43q-65 0 -105 -31q-55 -44 -100 -167l-207 -572l250 -680h121v-20h-399v20h155l-268 732l-197 -539q-20 -56 -20 -84 q0 -109 145 -109h43v-20h-438z" />
<glyph unicode="Y" horiz-adv-x="1214" d="M25 1470v21h378v-21h-129l355 -665l295 516q24 43 24 65q0 84 -94 84h-43v21h381v-21h-43q-41 0 -93 -36q-61 -44 -104 -119l-311 -545v-750h137v-20h-383v20h137v721l-391 729h-116z" />
<glyph unicode="Z" horiz-adv-x="985" d="M100 0l693 1470h-416q-103 0 -172 -91q-52 -67 -74 -165h-20v277h804l-692 -1471h400q215 0 270 263h20v-283h-813z" />
<glyph unicode="[" horiz-adv-x="494" d="M129 -264v1755h252v-21h-143v-1714h143v-20h-252z" />
<glyph unicode="\" horiz-adv-x="1327" d="M39 0v20h137v1450h-137v21h569q265 0 427 -221q153 -209 153 -525q0 -318 -153 -526q-161 -219 -427 -219h-569zM285 20h323q221 0 354 239q117 209 117 486t-117 487q-134 238 -354 238h-323v-1450zM1182 1430q0 61 61 61q31 0 53.5 -27.5t22.5 -68.5q0 -107 -98 -127 q43 43 43 75q0 13 -4 21q-78 0 -78 66z" />
<glyph unicode="]" horiz-adv-x="494" d="M113 -244h143v1714h-143v21h252v-1755h-252v20z" />
<glyph unicode="^" horiz-adv-x="1442" d="M84 745q0 323 164 550q167 231 416 231q248 0 415 -231q164 -227 164 -550q0 -322 -164 -549q-167 -231 -415 -231q-249 0 -416 231q-164 227 -164 549zM197 745q0 -296 130 -522q138 -237 337 -237q198 0 336 237q130 226 130 522q0 298 -130 523q-137 237 -336 237 q-200 0 -337 -237q-130 -225 -130 -523zM1221 1430q0 61 61 61q31 0 53.5 -27.5t22.5 -68.5q0 -107 -98 -127q43 43 43 75q0 13 -5 21q-77 0 -77 66z" />
<glyph unicode="_" horiz-adv-x="2048" d="M0 0h2048v-51h-2048v51z" />
<glyph unicode="`" horiz-adv-x="524" d="M41 920h180l45 -238h-20z" />
<glyph unicode="a" d="M55 170q0 84 77 143.5t177 59.5q97 0 217 -74v82q0 71 -36 119q-40 53 -111 53q-41 0 -91 -15.5t-48 -15.5q-7 0 -7 8q0 10 55 30q65 24 132 24q126 0 174 -64q41 -54 41 -182v-195q0 -120 90 -120q20 0 53 12q-36 -66 -112 -66q-97 0 -134 84q-103 -84 -233 -84 q-95 0 -167 55q-77 59 -77 146zM164 170q0 -73 56 -116.5t138 -43.5q73 0 168 58v211q-83 53 -155 53q-89 0 -148 -46t-59 -116z" />
<glyph unicode="b" horiz-adv-x="872" d="M8 0v20h125v1450h-125v21h234v-995q132 77 239 77q131 0 228 -82q104 -87 104 -219q0 -131 -105 -214q-98 -78 -237 -78q-97 0 -229 77v-57h-234zM242 88q96 -68 196 -68q113 0 187 66q80 70 80 186q0 118 -80 191q-76 69 -189 69q-98 0 -194 -67v-377z" />
<glyph unicode="c" d="M57 276q0 136 104 222t265 86q144 0 226 -70q67 -56 67 -123q0 -39 -22.5 -66.5t-57.5 -27.5q-68 0 -68 68q0 71 76 71q0 34 -46 74q-59 53 -150 53q-141 0 -217 -83q-68 -76 -68 -204q0 -119 81 -192.5t204 -73.5q85 0 158 47q50 33 93 88q37 48 35 48q11 0 11 -9 q0 -38 -85 -114q-113 -101 -264 -101q-145 0 -242 86q-100 87 -100 221z" />
<glyph unicode="d" horiz-adv-x="872" d="M59 272q0 132 104 219q97 82 228 82q107 0 240 -77v974h-125v21h233v-1471h125v-20h-233v57q-133 -77 -230 -77q-138 0 -237 78q-105 83 -105 214zM168 272q0 -116 79 -186q75 -66 187 -66q101 0 197 68v377q-96 67 -195 67q-113 0 -188 -69q-80 -73 -80 -191z" />
<glyph unicode="e" horiz-adv-x="834" d="M78 276q0 136 103 222t261 86q267 0 334 -248h-581q-9 -25 -9 -60q0 -113 83 -192q77 -74 177 -74q85 0 162 46q53 32 102 85q41 45 40 45q8 0 8 -12q0 -35 -91 -110q-115 -95 -251 -95q-140 0 -239 87t-99 220zM199 356h469q-16 74 -61 129q-64 78 -165 78t-174 -81 q-56 -61 -69 -126z" />
<glyph unicode="f" horiz-adv-x="494" d="M53 0v20h125v512h-112v21h112v668q0 123 71 199q67 71 169 71q68 0 118 -37.5t50 -95.5q0 -31 -17.5 -55.5t-44.5 -24.5q-51 0 -51 55q0 27 25.5 45.5t25.5 26.5q0 29 -33.5 47t-70.5 18q-133 0 -133 -194v-723h153v-21h-153v-512h125v-20h-359z" />
<glyph unicode="g" horiz-adv-x="872" d="M61 -274q0 153 152 188q-82 -58 -82 -193q0 -107 104 -162q83 -44 203 -44q135 0 233 46q113 53 113 144q0 116 -182 166q-55 15 -295 66q-86 18 -86 55q0 35 43 112q-83 40 -117 71q-61 59 -61 153q0 107 102.5 181.5t249.5 74.5q25 0 66 -4q102 141 229 141 q60 0 60 -55q0 -54 -56 -54q-48 0 -63 60q-86 0 -150 -97q90 -21 165 -77q102 -74 102 -170q0 -107 -104.5 -181.5t-248.5 -74.5q-39 0 -147 22q-25 -28 -25 -51q0 -14 78 -29q200 -39 270 -55q211 -48 211 -213q0 -134 -139 -201q-106 -51 -248 -51q-131 0 -243 55 q-134 66 -134 177zM195 328q0 -103 70.5 -169.5t172.5 -66.5q106 0 175 66t69 170q0 96 -57 159q-45 52 -113 68q-12 -18 -53 -117l-21 6q16 40 54 115q-29 4 -54 4q-103 0 -173 -66t-70 -169z" />
<glyph unicode="h" d="M33 0v20h125v1450h-125v21h233v-1002q92 84 185 84q204 0 204 -211v-342h109v-20h-217v369q0 163 -121 163q-79 0 -160 -73v-439h125v-20h-358z" />
<glyph unicode="i" horiz-adv-x="418" d="M41 0v20h125v512h-125v21h233v-533h125v-20h-358zM156 1067q0 59 59 59t59 -59t-59 -59t-59 59z" />
<glyph unicode="j" horiz-adv-x="455" d="M-74 -322q0 34 21 61.5t51 27.5q55 0 55 -58q0 -59 -65 -59q4 0 -27 6q-4 0 -4 -12q0 -40 32 -67.5t74 -27.5q140 0 140 244v739h-125v21h358v-21h-125v-692q0 -136 -56 -219q-62 -92 -179 -92q-74 0 -115 49q-35 42 -35 100zM190 1067q0 59 60 59q59 0 59 -59t-59 -59 q-60 0 -60 59z" />
<glyph unicode="k" horiz-adv-x="909" d="M53 0v20h125v1450h-125v21h234v-1309l219 183q90 74 90 106q0 61 -57 61h-47v21h385v-21h-43q-72 0 -156 -55q-32 -20 -137 -108l250 -349h86v-20h-312v20h92l-200 279l-170 -141v-138h125v-20h-359z" />
<glyph unicode="l" horiz-adv-x="418" d="M31 0v20h125v1450h-125v21h233v-1471h125v-20h-358z" />
<glyph unicode="m" horiz-adv-x="1100" d="M51 0v20h107v512h-107v21h215v-92q99 112 187 112q54 0 96.5 -32t54.5 -80q99 112 180 112q74 0 122 -52.5t48 -129.5v-371h107v-20h-215v381q0 151 -84 151q-62 0 -152 -102v-410h95v-20h-203v446q0 86 -72 86q-74 0 -164 -102v-410h94v-20h-309z" />
<glyph unicode="n" horiz-adv-x="758" d="M35 0v20h125v512h-125v21h233v-92q89 112 193 112q160 0 160 -200v-353h108v-20h-217v379q0 153 -94 153q-75 0 -150 -102v-410h125v-20h-358z" />
<glyph unicode="o" horiz-adv-x="834" d="M57 276q0 137 100.5 222.5t258.5 85.5q157 0 258.5 -86t101.5 -222q0 -135 -101.5 -221t-258.5 -86q-158 0 -258.5 85.5t-100.5 221.5zM166 276q0 -123 69.5 -204.5t180.5 -81.5t181.5 82t70.5 204q0 123 -70.5 205t-181.5 82t-180.5 -81.5t-69.5 -205.5z" />
<glyph unicode="p" horiz-adv-x="872" d="M18 -451h109v983h-104v21h213v-57q132 77 239 77q131 0 228 -82q104 -87 104 -219q0 -131 -105 -214q-98 -78 -237 -78q-97 0 -229 77v-508h108v-20h-326v20zM236 88q96 -68 196 -68q113 0 187 66q79 70 79 186q0 118 -79 191q-76 69 -189 69q-98 0 -194 -67v-377z" />
<glyph unicode="q" horiz-adv-x="872" d="M45 272q0 132 104 219q97 82 228 82q100 0 239 -77v57h213v-21h-104v-983h109v-20h-326v20h108v508q-132 -77 -229 -77q-139 0 -237 78q-105 83 -105 214zM154 272q0 -116 79 -186q74 -66 187 -66q100 0 196 68v377q-107 67 -194 67q-113 0 -189 -69q-79 -73 -79 -191z " />
<glyph unicode="r" horiz-adv-x="645" d="M35 0v20h125v512h-125v21h233v-129q12 45 66 90q71 59 170 59q45 0 79 -27q35 -30 35 -73q0 -74 -67 -74q-57 0 -57 54q0 47 30 61q0 29 -61 29q-60 0 -124 -58q-71 -64 -71 -141v-324h125v-20h-358z" />
<glyph unicode="s" d="M76 -31v205h20q41 -77 125 -128q91 -56 195 -56q174 0 174 127q0 81 -131 120l-242 58q-131 40 -131 127q0 80 79 125q67 37 157 37q55 0 129.5 -14.5t99.5 -14.5q33 0 98 29v-150h-20q-129 129 -299 129q-55 0 -93 -26q-42 -28 -42 -76q0 -62 130 -96q121 -30 243 -61 q130 -47 130 -142q0 -103 -96 -153q-75 -40 -186 -40q-79 0 -148.5 25.5t-77.5 25.5q-59 0 -114 -51z" />
<glyph unicode="t" horiz-adv-x="455" d="M14 532v21h76q72 110 108 190q23 53 70 195h11v-385h129v-21h-129v-393q0 -119 77 -119q19 0 78 25q0 -17 -41 -43q-50 -33 -114 -33q-72 0 -95 59q-14 34 -14 117v387h-156z" />
<glyph unicode="u" horiz-adv-x="758" d="M29 532v21h217v-379q0 -154 94 -154q75 0 149 103v409h-124v21h358v-21h-125v-512h125v-20h-234v92q-89 -112 -192 -112q-160 0 -160 200v352h-108z" />
<glyph unicode="v" d="M12 532v21h287v-21h-92l213 -436l139 281q29 46 29 67q0 45 -27 70q-21 18 -43 18h-31v21h287v-21h-31q-79 0 -163 -167l-199 -396h-10l-277 563h-82z" />
<glyph unicode="w" horiz-adv-x="985" d="M16 532v21h306v-21h-107l164 -391l131 412l203 -401l71 229q21 65 21 84q0 67 -55 67h-95v21h310v-21h-31q-78 0 -129 -167l-121 -396h-10l-199 393l-127 -393h-10l-236 563h-86z" />
<glyph unicode="x" horiz-adv-x="834" d="M29 0v20h26q27 0 154 132l129 133l-213 247h-96v21h297v-21h-58l187 -217l92 88q41 53 41 66q0 63 -68 63h-59v21h344v-21h-35q-54 0 -192 -131l-109 -102l242 -279h94v-20h-328v20h90l-215 248l-112 -118q-41 -44 -41 -66q0 -64 65 -64h62v-20h-297z" />
<glyph unicode="y" horiz-adv-x="948" d="M16 -356q0 65 62 65q51 0 51 -49q0 -24 -22.5 -40t-22.5 -23q0 -52 72 -52q81 0 155 107q30 42 92 172l84 174l-309 534h-119v21h359v-21h-111l240 -411l133 276q14 30 14 56q0 79 -67 79h-86v21h383v-21h-37q-39 0 -85 -28q-67 -40 -106 -121l-319 -664 q-92 -190 -230 -190q-56 0 -93.5 35t-37.5 80z" />
<glyph unicode="z" horiz-adv-x="721" d="M72 0l422 532h-183q-86 0 -148 -54q-53 -46 -71 -111h-10v186h557l-422 -533h201q150 0 221 166h10v-186h-577z" />
<glyph unicode="{" horiz-adv-x="1024" d="M227 575v41q228 121 228 263q0 53 -28 182t-28 182q0 294 430 363v-60q-221 -65 -221 -307q0 -35 14.5 -151t14.5 -152q0 -131 -117 -227q-65 -54 -201 -113q136 -59 201 -113q117 -96 117 -227q0 -36 -14.5 -152.5t-14.5 -150.5q0 -242 221 -307v-60q-430 68 -430 363 q0 53 28 182t28 182q0 142 -228 262z" />
<glyph unicode="|" horiz-adv-x="948" d="M8 1430q0 61 62 61q31 0 53 -27.5t22 -68.5q0 -107 -98 -127q43 43 43 75q0 13 -4 21q-78 0 -78 66zM209 276q0 136 104 222t265 86q143 0 226 -70q66 -56 66 -123q0 -39 -22.5 -66.5t-56.5 -27.5q-68 0 -68 68q0 71 76 71q0 34 -46 74q-60 53 -151 53q-141 0 -216 -83 q-69 -76 -69 -204q0 -119 83 -193q80 -73 202 -73q85 0 158 47q51 33 94 88q37 48 35 48q10 0 10 -9q0 -38 -85 -114q-112 -101 -263 -101q-145 0 -243.5 86.5t-98.5 220.5z" />
<glyph unicode="}" horiz-adv-x="1024" d="M195 -354q221 65 221 307q0 34 -14.5 150.5t-14.5 152.5q0 131 117 227q65 54 201 113q-136 59 -201 113q-117 96 -117 227q0 36 14.5 152t14.5 151q0 242 -221 307v60q430 -69 430 -363q0 -53 -28 -182t-28 -182q0 -142 228 -263v-41q-228 -120 -228 -262q0 -53 28 -182 t28 -182q0 -295 -430 -363v60z" />
<glyph unicode="~" horiz-adv-x="1024" d="M8 1430q0 61 62 61q31 0 53 -27.5t22 -68.5q0 -107 -98 -127q43 43 43 75q0 13 -4 21q-78 0 -78 66zM301 -31v205h21q40 -77 124 -128q91 -56 195 -56q174 0 174 127q0 81 -131 120l-242 58q-131 40 -131 127q0 80 80 125q66 37 156 37q55 0 130 -14.5t99 -14.5 q33 0 98 29v-150h-20q-129 129 -299 129q-55 0 -93 -26q-42 -28 -42 -76q0 -62 130 -96q122 -30 243 -61q131 -47 131 -142q0 -103 -96 -153q-75 -40 -187 -40q-78 0 -148 25.5t-77 25.5q-60 0 -115 -51z" />
<glyph unicode="&#xa0;" />
<glyph unicode="&#xa1;" horiz-adv-x="909" d="M0 942v21h369v-21h-129l266 -788l256 788h-127v21h278v-21h-127l-307 -942h-33l-319 942h-127z" />
<glyph unicode="&#xa2;" d="M55 479q0 143 122 235q103 79 222 81v88h27v-88q101 0 187 -46q104 -56 104 -151q0 -90 -84 -90q-26 0 -45 21.5t-19 48.5q0 69 76 69q-27 117 -219 117v-559q103 0 180 47q53 32 93 86l34 47q10 0 10 -8q0 -45 -91 -122q-107 -91 -226 -91v-164h-27v164q-101 0 -198 56 q-146 85 -146 259zM164 479q0 -130 88 -206q62 -52 147 -68v559q-70 0 -144 -70q-91 -86 -91 -215z" />
<glyph unicode="&#xa3;" d="M125 0q58 71 76 107q57 108 57 251q0 64 -22 117h-107v21h98q-17 42 -33 85q-28 76 -28 132q0 121 81.5 200.5t203.5 79.5q102 0 180 -53q71 -49 71 -100q0 -72 -67 -72q-66 0 -66 59q0 60 66 60q-53 86 -178 86q-82 0 -132 -50q-53 -53 -53 -149q0 -88 22 -181 q12 -49 23 -97h224v-21h-219q6 -24 6 -65q0 -75 -33 -170q-28 -82 -62 -131h342q63 0 90 15q10 6 64 58h14l-106 -182h-512z" />
<glyph unicode="&#xa4;" d="M76 -31v205h20q41 -77 125 -128q91 -56 195 -56q174 0 174 127q0 81 -131 120l-242 58q-131 40 -131 127q0 80 79 125q67 37 157 37q55 0 129.5 -14.5t99.5 -14.5q33 0 98 29v-150h-20q-129 129 -299 129q-55 0 -93 -26q-42 -28 -42 -76q0 -62 130 -96q121 -30 243 -61 q130 -47 130 -142q0 -103 -96 -153q-75 -40 -186 -40q-79 0 -148.5 25.5t-77.5 25.5q-59 0 -114 -51zM188 926h37l187 -107l186 107h37l-205 -244h-37z" />
<glyph unicode="&#xa5;" d="M8 942v21h293v-21h-82l213 -428l193 330q16 28 16 51q0 47 -49 47h-39v21h258v-21h-27q-75 0 -133 -98l-104 -178h178v-21h-190l-86 -149h276v-21h-283v-455h93v-20h-293v20h92v455h-275v21h271l-76 149h-195v21h185l-138 276h-98z" />
<glyph unicode="&#xa6;" horiz-adv-x="2048" />
<glyph unicode="&#xa7;" horiz-adv-x="1403" d="M-37 0v20h125v512h-125v21h234v-129q11 45 65 90q72 59 170 59q45 0 79 -27q36 -30 36 -73q0 -74 -68 -74q-57 0 -57 54q0 47 31 61q0 29 -62 29q-60 0 -124 -58q-70 -64 -70 -141v-324h125v-20h-359zM588 272q0 132 103 219q98 82 229 82q107 0 239 -77v974h-125v21h234 v-1471h125v-20h-234v57q-132 -77 -229 -77q-139 0 -237 78q-105 83 -105 214zM696 272q0 -116 80 -186q74 -66 187 -66q100 0 196 68v377q-96 67 -194 67q-113 0 -189 -69q-80 -73 -80 -191z" />
<glyph unicode="&#xa8;" horiz-adv-x="524" d="M51 805q0 31 22.5 53.5t53.5 22.5t53.5 -22.5t22.5 -53.5t-22.5 -53.5t-53.5 -22.5t-53.5 22.5t-22.5 53.5zM324 805q0 31 22.5 53.5t52.5 22.5q31 0 53.5 -22.5t22.5 -53.5t-22.5 -53.5t-53.5 -22.5q-30 0 -52.5 22.5t-22.5 53.5z" />
<glyph unicode="&#xa9;" horiz-adv-x="2048" />
<glyph unicode="&#xaa;" horiz-adv-x="2048" />
<glyph unicode="&#xab;" horiz-adv-x="455" d="M57 276l125 183h72l-125 -183l104 -182h-71zM209 276l125 183h72l-125 -183l104 -182h-72z" />
<glyph unicode="&#xac;" horiz-adv-x="758" d="M-37 0v20h154l200 482l-161 440h-105v21h324v-21h-105l168 -461l160 461h-123v21h264v-21h-123l-167 -487l155 -435h123v-20h-358v20h123l-166 457l-191 -457h154v-20h-326z" />
<glyph unicode="&#xad;" horiz-adv-x="530" d="M53 238v108h424v-108h-424z" />
<glyph unicode="&#xae;" horiz-adv-x="1518" d="M0 0v20h125v512h-125v21h233v-92q90 112 193 112q160 0 160 -200v-353h108v-20h-217v379q0 153 -94 153q-75 0 -150 -102v-410h125v-20h-358zM676 272q0 132 104 219q97 82 228 82q107 0 239 -77v974h-125v21h234v-1471h125v-20h-234v57q-132 -77 -229 -77 q-139 0 -237 78q-105 83 -105 214zM784 272q0 -116 80 -186q74 -66 187 -66q100 0 196 68v377q-96 67 -194 67q-113 0 -189 -69q-80 -73 -80 -191z" />
<glyph unicode="&#xaf;" horiz-adv-x="2048" />
<glyph unicode="&#xb0;" horiz-adv-x="645" d="M-131 1219q0 135 104 221t265 86q143 0 226 -70q66 -56 66 -123q0 -39 -22.5 -66.5t-56.5 -27.5q-68 0 -68 68q0 71 76 71q0 34 -46 75q-60 52 -151 52q-141 0 -216 -83q-69 -76 -69 -203q0 -120 83 -194q80 -73 202 -73q85 0 158 48q51 32 94 87q37 48 35 48q10 0 10 -9 q0 -38 -85 -114q-112 -101 -263 -101q-145 0 -242 86q-100 87 -100 222z" />
<glyph unicode="&#xb4;" horiz-adv-x="524" d="M246 682l45 238h180l-205 -238h-20z" />
<glyph unicode="&#xb6;" horiz-adv-x="1214" d="M125 381v20h80v541h-72v21h150v-562h79v-20h-237zM221 -31l627 1024h31l-627 -1024h-31zM676 465l67 110h322l-174 -219q37 6 33 6q83 0 133 -47q53 -50 53 -141q0 -83 -72 -138.5t-178 -55.5q-74 0 -127 34.5t-53 81.5q0 54 45 54q41 0 41 -37q0 -33 -41 -33 q-10 0 -16 2q10 -82 141 -82q74 0 128 50t54 122q0 170 -125 170q-2 0 -33 -6l-38 -51l-15 6l168 215h-207q-46 0 -96 -41h-10z" />
<glyph unicode="&#xb9;" horiz-adv-x="418" d="M41 0v20h125v512h-125v21h233v-533h125v-20h-358z" />
<glyph unicode="&#xba;" horiz-adv-x="721" d="M72 0l422 532h-183q-86 0 -148 -54q-53 -46 -71 -111h-10v186h557l-422 -533h201q150 0 221 166h10v-186h-577zM154 926h36l187 -107l186 107h37l-205 -244h-37z" />
<glyph unicode="&#xbb;" horiz-adv-x="455" d="M49 459h72l125 -183l-105 -182h-71l104 182zM201 459h71l125 -183l-104 -182h-72l105 182z" />
<glyph unicode="&#xbc;" horiz-adv-x="1214" d="M172 381v20h80v541h-72v21h150v-562h80v-20h-238zM268 -31l627 1024h31l-627 -1024h-31zM616 94l277 516h61v-495q49 7 65 28q11 13 25 66h11v-115h-101v-74h78v-20h-233v20h78v74h-261zM651 115h226v420z" />
<glyph unicode="&#xbd;" horiz-adv-x="1214" d="M121 381v20h80v541h-72v21h150v-562h79v-20h-237zM219 -31l625 1024h30l-624 -1024h-31zM670 451q0 60 54.5 103.5t139.5 43.5q93 0 154 -50q63 -53 63 -138q0 -88 -93 -135q-92 -39 -183 -78q-37 -21 -68 -68q-24 -37 -28 -59h268q46 0 60 6q7 3 36 28q-10 -36 -35 -70 t-47 -34h-319q17 127 104 198q75 44 151.5 90t76.5 122q0 71 -45 119.5t-113 48.5q-57 0 -107 -33q-53 -35 -53 -82q0 -8 4 -8q1 0 12.5 7t26.5 7q41 0 41 -37q0 -41 -49 -41q-51 0 -51 60z" />
<glyph unicode="&#xbe;" horiz-adv-x="1214" d="M117 852l67 111h322l-174 -220q37 7 33 7q83 0 134.5 -49t51.5 -140q0 -83 -72 -138.5t-178 -55.5q-74 0 -127 34.5t-53 81.5q0 54 45 54q41 0 41 -37q0 -33 -41 -33q-10 0 -16 2q10 -82 141 -82q74 0 128 50.5t54 121.5q0 170 -125 170q-2 0 -33 -6l-39 -51l-14 6 l168 215h-207q-46 0 -96 -41h-10zM360 -31l627 1024h31l-627 -1024h-31zM692 94l277 516h61v-495q48 7 65 28q11 13 25 66h10v-115h-100v-74h78v-20h-234v20h78v74h-260zM727 115h225v420z" />
<glyph unicode="&#xbf;" horiz-adv-x="455" d="M49 0v20h119v922h-119v21h357v-21h-130v-922h130v-20h-357z" />
<glyph unicode="&#xc0;" horiz-adv-x="1403" d="M37 0v20h72q82 0 143 94q48 75 98 242l340 1125q7 22 23 22q10 0 20 -20l527 -1463h108v-20h-354v20h127l-172 480h-549l-58 -187q-34 -113 -34 -155q0 -138 121 -138h69v-20h-481zM426 520h535l-291 813zM545 1854h180l45 -238h-20z" />
<glyph unicode="&#xc1;" horiz-adv-x="1403" d="M37 0v20h72q82 0 143 94q48 75 98 242l340 1125q7 22 23 22q10 0 20 -20l527 -1463h108v-20h-354v20h127l-172 480h-549l-58 -187q-34 -113 -34 -155q0 -138 121 -138h69v-20h-481zM426 520h535l-291 813zM672 1616l45 238h180l-205 -238h-20z" />
<glyph unicode="&#xc2;" horiz-adv-x="1403" d="M37 0v20h72q82 0 143 94q48 75 98 242l340 1125q7 22 23 22q10 0 20 -20l527 -1463h108v-20h-354v20h127l-172 480h-549l-58 -187q-34 -113 -34 -155q0 -138 121 -138h69v-20h-481zM426 520h535l-291 813zM498 1616l205 244h37l204 -244h-36l-187 106l-186 -106h-37z" />
<glyph unicode="&#xc3;" horiz-adv-x="1403" d="M37 0v20h72q82 0 143 94q48 75 98 242l340 1125q7 22 23 22q10 0 20 -20l527 -1463h108v-20h-354v20h127l-172 480h-549l-58 -187q-34 -113 -34 -155q0 -138 121 -138h69v-20h-481zM426 520h535l-291 813zM539 1622q27 110 104 110q31 0 87.5 -17.5t76.5 -17.5 q68 0 88 35h27q-28 -110 -105 -110q-30 0 -87 17t-77 17q-68 0 -88 -34h-26z" />
<glyph unicode="&#xc4;" horiz-adv-x="1403" d="M37 0v20h72q82 0 143 94q48 75 98 242l340 1125q7 22 23 22q10 0 20 -20l527 -1463h108v-20h-354v20h127l-172 480h-549l-58 -187q-34 -113 -34 -155q0 -138 121 -138h69v-20h-481zM426 520h535l-291 813zM510 1690q0 31 22.5 53.5t53.5 22.5t53.5 -22.5t22.5 -53.5 t-22.5 -53.5t-53.5 -22.5t-53.5 22.5t-22.5 53.5zM783 1690q0 31 22.5 53.5t52.5 22.5q31 0 53.5 -22.5t22.5 -53.5t-22.5 -53.5t-53.5 -22.5q-30 0 -52.5 22.5t-22.5 53.5z" />
<glyph unicode="&#xc5;" horiz-adv-x="1403" d="M37 0v20h72q82 0 143 94q48 75 98 242l340 1125q7 22 23 22q10 0 20 -20l527 -1463h108v-20h-354v20h127l-172 480h-549l-58 -187q-34 -113 -34 -155q0 -138 121 -138h69v-20h-481zM426 520h535l-291 813zM546 1774q0 67 45.5 112t112.5 45q68 0 113 -45t45 -112 q0 -68 -45 -113t-113 -45q-67 0 -112.5 45t-45.5 113zM616 1774q0 -36 25.5 -62t60.5 -26q36 0 63 26.5t27 61.5t-27 61.5t-63 26.5q-35 0 -60.5 -26.5t-25.5 -61.5z" />
<glyph unicode="&#xc6;" horiz-adv-x="1100" d="M49 -31v205h21q40 -77 124 -128q91 -56 195 -56q174 0 174 127q0 81 -130 120q-122 29 -243 58q-131 40 -131 127q0 80 80 125q66 37 156 37q55 0 130 -14.5t99 -14.5q33 0 99 29v-150h-21q-129 129 -299 129q-55 0 -93 -26q-42 -28 -42 -76q0 -62 131 -96 q121 -30 242 -61q131 -47 131 -142q0 -103 -96 -153q-75 -40 -187 -40q-78 0 -147.5 25.5t-77.5 25.5q-60 0 -115 -51zM668 532v21h75q73 110 108 190q23 53 71 195h10v-385h129v-21h-129v-393q0 -119 78 -119q19 0 77 25q0 -17 -40 -43q-51 -33 -115 -33q-72 0 -95 59 q-14 34 -14 117v387h-155z" />
<glyph unicode="&#xc7;" horiz-adv-x="1176" d="M86 745q0 323 158 550q162 231 401 231q61 0 143.5 -28t96.5 -28q37 0 153 52v-297h-14q-35 102 -147 189q-118 91 -232 91q-190 0 -321 -237q-125 -225 -125 -523q0 -296 125 -523q131 -238 321 -238q168 0 299 149q135 155 135 369q0 28 -17.5 83.5t-17.5 84.5 q0 18 13 18q43 0 43 -168q0 -224 -129.5 -385.5t-306.5 -169.5l-33 -172q43 6 47 6q48 0 89 -37q46 -43 46 -108q0 -68 -46.5 -113t-117.5 -45q-80 0 -151 55l14 25q48 -39 104 -39q55 0 89 43q30 38 30 86q0 39 -26 65.5t-66 26.5q-2 0 -57 -6l41 213q-234 11 -389 239 q-152 224 -152 541z" />
<glyph unicode="&#xc8;" horiz-adv-x="1024" d="M33 0v20h137v1450h-137v21h874v-240h-20q-26 107 -63 151q-58 68 -181 68h-364v-677h311q149 0 164 163h20v-358h-20q-16 174 -164 174h-311v-752h325q227 0 291 281h20v-301h-882zM348 1854h180l45 -238h-20z" />
<glyph unicode="&#xc9;" horiz-adv-x="1024" d="M33 0v20h137v1450h-137v21h874v-240h-20q-26 107 -63 151q-58 68 -181 68h-364v-677h311q149 0 164 163h20v-358h-20q-16 174 -164 174h-311v-752h325q227 0 291 281h20v-301h-882zM467 1616l45 238h180l-205 -238h-20z" />
<glyph unicode="&#xca;" horiz-adv-x="1024" d="M33 0v20h137v1450h-137v21h874v-240h-20q-26 107 -63 151q-58 68 -181 68h-364v-677h311q149 0 164 163h20v-358h-20q-16 174 -164 174h-311v-752h325q227 0 291 281h20v-301h-882zM268 1616l205 244h37l204 -244h-36l-187 106l-186 -106h-37z" />
<glyph unicode="&#xcb;" horiz-adv-x="1024" d="M33 0v20h137v1450h-137v21h874v-240h-20q-26 107 -63 151q-58 68 -181 68h-364v-677h311q149 0 164 163h20v-358h-20q-16 174 -164 174h-311v-752h325q227 0 291 281h20v-301h-882zM297 1690q0 31 22.5 53.5t53.5 22.5t53.5 -22.5t22.5 -53.5t-22.5 -53.5t-53.5 -22.5 t-53.5 22.5t-22.5 53.5zM570 1690q0 31 22.5 53.5t52.5 22.5q31 0 53.5 -22.5t22.5 -53.5t-22.5 -53.5t-53.5 -22.5q-30 0 -52.5 22.5t-22.5 53.5z" />
<glyph unicode="&#xcc;" horiz-adv-x="455" d="M37 0v20h137v1450h-137v21h383v-21h-137v-1450h137v-20h-383zM78 1854h180l45 -238h-20z" />
<glyph unicode="&#xcd;" horiz-adv-x="455" d="M37 0v20h137v1450h-137v21h383v-21h-137v-1450h137v-20h-383zM180 1616l45 238h180l-205 -238h-20z" />
<glyph unicode="&#xce;" horiz-adv-x="455" d="M23 1616l205 244h37l204 -244h-36l-187 106l-186 -106h-37zM37 0v20h137v1450h-137v21h383v-21h-137v-1450h137v-20h-383z" />
<glyph unicode="&#xcf;" horiz-adv-x="455" d="M18 1690q0 31 22.5 53.5t53.5 22.5t53.5 -22.5t22.5 -53.5t-22.5 -53.5t-53.5 -22.5t-53.5 22.5t-22.5 53.5zM37 0v20h137v1450h-137v21h383v-21h-137v-1450h137v-20h-383zM291 1690q0 31 22.5 53.5t52.5 22.5q31 0 53.5 -22.5t22.5 -53.5t-22.5 -53.5t-53.5 -22.5 q-30 0 -52.5 22.5t-22.5 53.5z" />
<glyph unicode="&#xd1;" horiz-adv-x="1251" d="M16 0v20h68q162 0 162 205v1088l-88 157h-119v21h242l688 -1247v1022q0 204 -162 204h-68v21h482v-21h-68q-164 0 -164 -204v-1301l-723 1311v-1051q0 -205 164 -205h68v-20h-482zM453 1622q27 110 104 110q31 0 87.5 -17.5t76.5 -17.5q68 0 88 35h27q-28 -110 -105 -110 q-30 0 -87 17t-77 17q-68 0 -88 -34h-26z" />
<glyph unicode="&#xd2;" horiz-adv-x="1327" d="M84 745q0 323 164 550q167 231 416 231q248 0 415 -231q164 -227 164 -550q0 -322 -164 -549q-167 -231 -415 -231q-249 0 -416 231q-164 227 -164 549zM197 745q0 -296 130 -522q138 -237 337 -237q198 0 336 237q130 226 130 522q0 298 -130 523q-137 237 -336 237 q-200 0 -337 -237q-130 -225 -130 -523zM520 1854h180l45 -238h-20z" />
<glyph unicode="&#xd3;" horiz-adv-x="1327" d="M84 745q0 323 164 550q167 231 416 231q248 0 415 -231q164 -227 164 -550q0 -322 -164 -549q-167 -231 -415 -231q-249 0 -416 231q-164 227 -164 549zM197 745q0 -296 130 -522q138 -237 337 -237q198 0 336 237q130 226 130 522q0 298 -130 523q-137 237 -336 237 q-200 0 -337 -237q-130 -225 -130 -523zM639 1616l45 238h180l-205 -238h-20z" />
<glyph unicode="&#xd4;" horiz-adv-x="1327" d="M84 745q0 323 164 550q167 231 416 231q248 0 415 -231q164 -227 164 -550q0 -322 -164 -549q-167 -231 -415 -231q-249 0 -416 231q-164 227 -164 549zM197 745q0 -296 130 -522q138 -237 337 -237q198 0 336 237q130 226 130 522q0 298 -130 523q-137 237 -336 237 q-200 0 -337 -237q-130 -225 -130 -523zM449 1616l205 244h37l204 -244h-36l-187 106l-186 -106h-37z" />
<glyph unicode="&#xd5;" horiz-adv-x="1327" d="M84 745q0 323 164 550q167 231 416 231q248 0 415 -231q164 -227 164 -550q0 -322 -164 -549q-167 -231 -415 -231q-249 0 -416 231q-164 227 -164 549zM197 745q0 -296 130 -522q138 -237 337 -237q198 0 336 237q130 226 130 522q0 298 -130 523q-137 237 -336 237 q-200 0 -337 -237q-130 -225 -130 -523zM478 1622q27 110 104 110q31 0 87.5 -17.5t76.5 -17.5q68 0 88 35h27q-28 -110 -105 -110q-30 0 -87 17t-77 17q-68 0 -88 -34h-26z" />
<glyph unicode="&#xd6;" horiz-adv-x="1327" d="M84 745q0 323 164 550q167 231 416 231q248 0 415 -231q164 -227 164 -550q0 -322 -164 -549q-167 -231 -415 -231q-249 0 -416 231q-164 227 -164 549zM197 745q0 -296 130 -522q138 -237 337 -237q198 0 336 237q130 226 130 522q0 298 -130 523q-137 237 -336 237 q-200 0 -337 -237q-130 -225 -130 -523zM493 1690q0 31 22.5 53.5t53.5 22.5t53.5 -22.5t22.5 -53.5t-22.5 -53.5t-53.5 -22.5t-53.5 22.5t-22.5 53.5zM766 1690q0 31 22.5 53.5t52.5 22.5q31 0 53.5 -22.5t22.5 -53.5t-22.5 -53.5t-53.5 -22.5q-30 0 -52.5 22.5t-22.5 53.5 z" />
<glyph unicode="&#xd8;" horiz-adv-x="1214" d="M0 532v21h76q72 110 107 190q23 53 71 195h10v-385h129v-21h-129v-393q0 -119 78 -119q19 0 78 25q0 -17 -41 -43q-51 -33 -115 -33q-71 0 -95 59q-13 34 -13 117v387h-156zM455 0v20h125v1450h-125v21h233v-1002q92 84 184 84q205 0 205 -211v-342h109v-20h-217v369 q0 163 -121 163q-79 0 -160 -73v-439h125v-20h-358z" />
<glyph unicode="&#xd9;" horiz-adv-x="1176" d="M63 1470v21h383v-21h-137v-1173q0 -116 29 -176q61 -125 246 -125q329 0 329 336v934q0 204 -161 204h-68v21h481v-21h-67q-164 0 -164 -204v-934q0 -366 -342 -367q-198 0 -299 97q-92 88 -92 239v1169h-138zM447 1854h180l45 -238h-20z" />
<glyph unicode="&#xda;" horiz-adv-x="1176" d="M63 1470v21h383v-21h-137v-1173q0 -116 29 -176q61 -125 246 -125q329 0 329 336v934q0 204 -161 204h-68v21h481v-21h-67q-164 0 -164 -204v-934q0 -366 -342 -367q-198 0 -299 97q-92 88 -92 239v1169h-138zM541 1616l45 238h180l-205 -238h-20z" />
<glyph unicode="&#xdb;" horiz-adv-x="1176" d="M63 1470v21h383v-21h-137v-1173q0 -116 29 -176q61 -125 246 -125q329 0 329 336v934q0 204 -161 204h-68v21h481v-21h-67q-164 0 -164 -204v-934q0 -366 -342 -367q-198 0 -299 97q-92 88 -92 239v1169h-138zM350 1616l205 244h37l204 -244h-36l-187 106l-186 -106h-37z " />
<glyph unicode="&#xdc;" horiz-adv-x="1176" d="M63 1470v21h383v-21h-137v-1173q0 -116 29 -176q61 -125 246 -125q329 0 329 336v934q0 204 -161 204h-68v21h481v-21h-67q-164 0 -164 -204v-934q0 -366 -342 -367q-198 0 -299 97q-92 88 -92 239v1169h-138zM411 1690q0 31 22.5 53.5t53.5 22.5t53.5 -22.5t22.5 -53.5 t-22.5 -53.5t-53.5 -22.5t-53.5 22.5t-22.5 53.5zM684 1690q0 31 22.5 53.5t52.5 22.5q31 0 53.5 -22.5t22.5 -53.5t-22.5 -53.5t-53.5 -22.5q-30 0 -52.5 22.5t-22.5 53.5z" />
<glyph unicode="&#xdd;" horiz-adv-x="2048" />
<glyph unicode="&#xde;" horiz-adv-x="2048" />
<glyph unicode="&#xdf;" horiz-adv-x="682" d="M0 0v20h125v1041q0 213 27 294q46 136 192 136q246 0 246 -479q0 -251 -55 -356q-44 -83 -160 -128q266 0 266 -280q0 -279 -219 -279q-15 0 -31 6v21q12 -6 27 -6q60 0 86 56q28 60 28 202q0 136 -56 206q-44 54 -101 54h-19v20q72 58 98 155q27 102 27 329 q0 229 -21 324q-30 134 -118 134q-68 0 -91 -67q-18 -51 -18 -180v-1223h-233z" />
<glyph unicode="&#xe0;" d="M55 170q0 84 77 143.5t177 59.5q97 0 217 -74v82q0 71 -36 119q-40 53 -111 53q-41 0 -91 -15.5t-48 -15.5q-7 0 -7 8q0 10 55 30q65 24 132 24q126 0 174 -64q41 -54 41 -182v-195q0 -120 90 -120q20 0 53 12q-36 -66 -112 -66q-97 0 -134 84q-103 -84 -233 -84 q-95 0 -167 55q-77 59 -77 146zM164 170q0 -73 56 -116.5t138 -43.5q73 0 168 58v211q-83 53 -155 53q-89 0 -148 -46t-59 -116zM299 920h180l45 -238h-20z" />
<glyph unicode="&#xe1;" d="M55 170q0 84 77 143.5t177 59.5q97 0 217 -74v82q0 71 -36 119q-40 53 -111 53q-41 0 -91 -15.5t-48 -15.5q-7 0 -7 8q0 10 55 30q65 24 132 24q126 0 174 -64q41 -54 41 -182v-195q0 -120 90 -120q20 0 53 12q-36 -66 -112 -66q-97 0 -134 84q-103 -84 -233 -84 q-95 0 -167 55q-77 59 -77 146zM164 170q0 -73 56 -116.5t138 -43.5q73 0 168 58v211q-83 53 -155 53q-89 0 -148 -46t-59 -116zM344 682l45 238h180l-205 -238h-20z" />
<glyph unicode="&#xe2;" d="M55 170q0 84 77 143.5t177 59.5q97 0 217 -74v82q0 71 -36 119q-40 53 -111 53q-41 0 -91 -15.5t-48 -15.5q-7 0 -7 8q0 10 55 30q65 24 132 24q126 0 174 -64q41 -54 41 -182v-195q0 -120 90 -120q20 0 53 12q-36 -66 -112 -66q-97 0 -134 84q-103 -84 -233 -84 q-95 0 -167 55q-77 59 -77 146zM164 170q0 -73 56 -116.5t138 -43.5q73 0 168 58v211q-83 53 -155 53q-89 0 -148 -46t-59 -116zM186 682l205 244h37l204 -244h-36l-187 106l-186 -106h-37z" />
<glyph unicode="&#xe3;" d="M55 170q0 84 77 143.5t177 59.5q97 0 217 -74v82q0 71 -36 119q-40 53 -111 53q-41 0 -91 -15.5t-48 -15.5q-7 0 -7 8q0 10 55 30q65 24 132 24q126 0 174 -64q41 -54 41 -182v-195q0 -120 90 -120q20 0 53 12q-36 -66 -112 -66q-97 0 -134 84q-103 -84 -233 -84 q-95 0 -167 55q-77 59 -77 146zM164 170q0 -73 56 -116.5t138 -43.5q73 0 168 58v211q-83 53 -155 53q-89 0 -148 -46t-59 -116zM232 750q27 110 104 110q31 0 87.5 -17.5t76.5 -17.5q68 0 88 35h27q-28 -110 -105 -110q-30 0 -87 17t-77 17q-68 0 -88 -34h-26z" />
<glyph unicode="&#xe4;" d="M55 170q0 84 77 143.5t177 59.5q97 0 217 -74v82q0 71 -36 119q-40 53 -111 53q-41 0 -91 -15.5t-48 -15.5q-7 0 -7 8q0 10 55 30q65 24 132 24q126 0 174 -64q41 -54 41 -182v-195q0 -120 90 -120q20 0 53 12q-36 -66 -112 -66q-97 0 -134 84q-103 -84 -233 -84 q-95 0 -167 55q-77 59 -77 146zM164 170q0 -73 56 -116.5t138 -43.5q73 0 168 58v211q-83 53 -155 53q-89 0 -148 -46t-59 -116zM198 805q0 31 22.5 53.5t53.5 22.5t53.5 -22.5t22.5 -53.5t-22.5 -53.5t-53.5 -22.5t-53.5 22.5t-22.5 53.5zM471 805q0 31 22.5 53.5 t52.5 22.5q31 0 53.5 -22.5t22.5 -53.5t-22.5 -53.5t-53.5 -22.5q-30 0 -52.5 22.5t-22.5 53.5z" />
<glyph unicode="&#xe5;" d="M55 170q0 84 77 143.5t177 59.5q97 0 217 -74v82q0 71 -36 119q-40 53 -111 53q-41 0 -91 -15.5t-48 -15.5q-7 0 -7 8q0 10 55 30q65 24 132 24q126 0 174 -64q41 -54 41 -182v-195q0 -120 90 -120q20 0 53 12q-36 -66 -112 -66q-97 0 -134 84q-103 -84 -233 -84 q-95 0 -167 55q-77 59 -77 146zM164 170q0 -73 56 -116.5t138 -43.5q73 0 168 58v211q-83 53 -155 53q-89 0 -148 -46t-59 -116zM251 840q0 67 45.5 112t112.5 45q68 0 113 -45t45 -112q0 -68 -45 -113t-113 -45q-67 0 -112.5 45t-45.5 113zM321 840q0 -36 25.5 -62 t60.5 -26q36 0 63 26.5t27 61.5t-27 61.5t-63 26.5q-35 0 -60.5 -26.5t-25.5 -61.5z" />
<glyph unicode="&#xe6;" horiz-adv-x="2048" />
<glyph unicode="&#xe7;" d="M57 276q0 136 104 222t265 86q144 0 226 -70q67 -56 67 -123q0 -39 -22.5 -66.5t-57.5 -27.5q-68 0 -68 68q0 71 76 71q0 34 -46 74q-59 53 -150 53q-141 0 -217 -83q-68 -76 -68 -204q0 -119 81 -192.5t204 -73.5q85 0 158 47q50 33 93 88q37 48 35 48q11 0 11 -9 q0 -35 -82 -108q-107 -96 -250 -107l-37 -164l37 7q55 0 97 -37q48 -41 48 -111q0 -64 -47.5 -110t-110.5 -46q-90 0 -157 56l14 24q51 -39 107 -39q44 0 77 38t33 91q0 93 -98 93q-2 0 -45 -7l45 205q-136 0 -229 86.5t-93 220.5z" />
<glyph unicode="&#xe8;" horiz-adv-x="834" d="M78 276q0 136 103 222t261 86q267 0 334 -248h-581q-9 -25 -9 -60q0 -113 83 -192q77 -74 177 -74q85 0 162 46q53 32 102 85q41 45 40 45q8 0 8 -12q0 -35 -91 -110q-115 -95 -251 -95q-140 0 -239 87t-99 220zM199 356h469q-16 74 -61 129q-64 78 -165 78t-174 -81 q-56 -61 -69 -126zM287 920h180l45 -238h-20z" />
<glyph unicode="&#xe9;" horiz-adv-x="834" d="M78 276q0 136 103 222t261 86q267 0 334 -248h-581q-9 -25 -9 -60q0 -113 83 -192q77 -74 177 -74q85 0 162 46q53 32 102 85q41 45 40 45q8 0 8 -12q0 -35 -91 -110q-115 -95 -251 -95q-140 0 -239 87t-99 220zM199 356h469q-16 74 -61 129q-64 78 -165 78t-174 -81 q-56 -61 -69 -126zM377 682l45 238h180l-205 -238h-20z" />
<glyph unicode="&#xea;" horiz-adv-x="834" d="M78 276q0 136 103 222t261 86q267 0 334 -248h-581q-9 -25 -9 -60q0 -113 83 -192q77 -74 177 -74q85 0 162 46q53 32 102 85q41 45 40 45q8 0 8 -12q0 -35 -91 -110q-115 -95 -251 -95q-140 0 -239 87t-99 220zM199 356h469q-16 74 -61 129q-64 78 -165 78t-174 -81 q-56 -61 -69 -126zM219 682l205 244h37l204 -244h-36l-187 106l-186 -106h-37z" />
<glyph unicode="&#xeb;" horiz-adv-x="834" d="M78 276q0 136 103 222t261 86q267 0 334 -248h-581q-9 -25 -9 -60q0 -113 83 -192q77 -74 177 -74q85 0 162 46q53 32 102 85q41 45 40 45q8 0 8 -12q0 -35 -91 -110q-115 -95 -251 -95q-140 0 -239 87t-99 220zM199 356h469q-16 74 -61 129q-64 78 -165 78t-174 -81 q-56 -61 -69 -126zM231 805q0 31 22.5 53.5t53.5 22.5t53.5 -22.5t22.5 -53.5t-22.5 -53.5t-53.5 -22.5t-53.5 22.5t-22.5 53.5zM504 805q0 31 22.5 53.5t52.5 22.5q31 0 53.5 -22.5t22.5 -53.5t-22.5 -53.5t-53.5 -22.5q-30 0 -52.5 22.5t-22.5 53.5z" />
<glyph unicode="&#xec;" horiz-adv-x="418" d="M41 0v20h125v512h-125v21h233v-533h125v-20h-358zM66 920h180l45 -238h-20z" />
<glyph unicode="&#xed;" horiz-adv-x="418" d="M41 0v20h125v512h-125v21h233v-533h125v-20h-358zM148 682l45 238h180l-205 -238h-20z" />
<glyph unicode="&#xee;" horiz-adv-x="418" d="M-10 682l205 244h37l204 -244h-36l-187 106l-186 -106h-37zM41 0v20h125v512h-125v21h233v-533h125v-20h-358z" />
<glyph unicode="&#xef;" horiz-adv-x="418" d="M2 805q0 31 22.5 53.5t53.5 22.5t53.5 -22.5t22.5 -53.5t-22.5 -53.5t-53.5 -22.5t-53.5 22.5t-22.5 53.5zM41 0v20h125v512h-125v21h233v-533h125v-20h-358zM275 805q0 31 22.5 53.5t52.5 22.5q31 0 53.5 -22.5t22.5 -53.5t-22.5 -53.5t-53.5 -22.5q-30 0 -52.5 22.5 t-22.5 53.5z" />
<glyph unicode="&#xf1;" horiz-adv-x="758" d="M35 0v20h125v512h-125v21h233v-92q89 112 193 112q160 0 160 -200v-353h108v-20h-217v379q0 153 -94 153q-75 0 -150 -102v-410h125v-20h-358zM207 750q27 110 104 110q31 0 87.5 -17.5t76.5 -17.5q68 0 88 35h27q-28 -110 -105 -110q-30 0 -87 17t-77 17q-68 0 -88 -34 h-26z" />
<glyph unicode="&#xf2;" horiz-adv-x="834" d="M57 276q0 137 100.5 222.5t258.5 85.5q157 0 258.5 -86t101.5 -222q0 -135 -101.5 -221t-258.5 -86q-158 0 -258.5 85.5t-100.5 221.5zM166 276q0 -123 69.5 -204.5t180.5 -81.5t181.5 82t70.5 204q0 123 -70.5 205t-181.5 82t-180.5 -81.5t-69.5 -205.5zM274 920h180 l45 -238h-20z" />
<glyph unicode="&#xf3;" horiz-adv-x="834" d="M57 276q0 137 100.5 222.5t258.5 85.5q157 0 258.5 -86t101.5 -222q0 -135 -101.5 -221t-258.5 -86q-158 0 -258.5 85.5t-100.5 221.5zM166 276q0 -123 69.5 -204.5t180.5 -81.5t181.5 82t70.5 204q0 123 -70.5 205t-181.5 82t-180.5 -81.5t-69.5 -205.5zM393 682l45 238 h180l-205 -238h-20z" />
<glyph unicode="&#xf4;" horiz-adv-x="834" d="M57 276q0 137 100.5 222.5t258.5 85.5q157 0 258.5 -86t101.5 -222q0 -135 -101.5 -221t-258.5 -86q-158 0 -258.5 85.5t-100.5 221.5zM166 276q0 -123 69.5 -204.5t180.5 -81.5t181.5 82t70.5 204q0 123 -70.5 205t-181.5 82t-180.5 -81.5t-69.5 -205.5zM191 682 l205 244h37l204 -244h-36l-187 106l-186 -106h-37z" />
<glyph unicode="&#xf5;" horiz-adv-x="834" d="M57 276q0 137 100.5 222.5t258.5 85.5q157 0 258.5 -86t101.5 -222q0 -135 -101.5 -221t-258.5 -86q-158 0 -258.5 85.5t-100.5 221.5zM166 276q0 -123 69.5 -204.5t180.5 -81.5t181.5 82t70.5 204q0 123 -70.5 205t-181.5 82t-180.5 -81.5t-69.5 -205.5zM232 750 q27 110 104 110q31 0 87.5 -17.5t76.5 -17.5q68 0 88 35h27q-28 -110 -105 -110q-30 0 -87 17t-77 17q-68 0 -88 -34h-26z" />
<glyph unicode="&#xf6;" horiz-adv-x="834" d="M57 276q0 137 100.5 222.5t258.5 85.5q157 0 258.5 -86t101.5 -222q0 -135 -101.5 -221t-258.5 -86q-158 0 -258.5 85.5t-100.5 221.5zM166 276q0 -123 69.5 -204.5t180.5 -81.5t181.5 82t70.5 204q0 123 -70.5 205t-181.5 82t-180.5 -81.5t-69.5 -205.5zM215 805 q0 31 22.5 53.5t53.5 22.5t53.5 -22.5t22.5 -53.5t-22.5 -53.5t-53.5 -22.5t-53.5 22.5t-22.5 53.5zM488 805q0 31 22.5 53.5t52.5 22.5q31 0 53.5 -22.5t22.5 -53.5t-22.5 -53.5t-53.5 -22.5q-30 0 -52.5 22.5t-22.5 53.5z" />
<glyph unicode="&#xf7;" horiz-adv-x="2048" />
<glyph unicode="&#xf9;" horiz-adv-x="758" d="M29 532v21h217v-379q0 -154 94 -154q75 0 149 103v409h-124v21h358v-21h-125v-512h125v-20h-234v92q-89 -112 -192 -112q-160 0 -160 200v352h-108zM225 920h180l45 -238h-20z" />
<glyph unicode="&#xfa;" horiz-adv-x="758" d="M29 532v21h217v-379q0 -154 94 -154q75 0 149 103v409h-124v21h358v-21h-125v-512h125v-20h-234v92q-89 -112 -192 -112q-160 0 -160 200v352h-108zM312 682l45 238h180l-205 -238h-20z" />
<glyph unicode="&#xfb;" horiz-adv-x="758" d="M29 532v21h217v-379q0 -154 94 -154q75 0 149 103v409h-124v21h358v-21h-125v-512h125v-20h-234v92q-89 -112 -192 -112q-160 0 -160 200v352h-108zM137 682l205 244h37l204 -244h-36l-187 106l-186 -106h-37z" />
<glyph unicode="&#xfc;" horiz-adv-x="758" d="M29 532v21h217v-379q0 -154 94 -154q75 0 149 103v409h-124v21h358v-21h-125v-512h125v-20h-234v92q-89 -112 -192 -112q-160 0 -160 200v352h-108zM149 805q0 31 22.5 53.5t53.5 22.5t53.5 -22.5t22.5 -53.5t-22.5 -53.5t-53.5 -22.5t-53.5 22.5t-22.5 53.5zM422 805 q0 31 22.5 53.5t52.5 22.5q31 0 53.5 -22.5t22.5 -53.5t-22.5 -53.5t-53.5 -22.5q-30 0 -52.5 22.5t-22.5 53.5z" />
<glyph unicode="&#xfd;" horiz-adv-x="948" d="M16 -356q0 65 62 65q51 0 51 -49q0 -24 -22.5 -40t-22.5 -23q0 -52 72 -52q81 0 155 107q30 42 92 172l84 174l-309 534h-119v21h359v-21h-111l240 -411l133 276q14 30 14 56q0 79 -67 79h-86v21h383v-21h-37q-39 0 -85 -28q-67 -40 -106 -121l-319 -664 q-92 -190 -230 -190q-56 0 -93.5 35t-37.5 80zM475 682l45 238h180l-204 -238h-21z" />
<glyph unicode="&#xff;" horiz-adv-x="948" d="M16 -356q0 65 62 65q51 0 51 -49q0 -24 -22.5 -40t-22.5 -23q0 -52 72 -52q81 0 155 107q30 42 92 172l84 174l-309 534h-119v21h359v-21h-111l240 -411l133 276q14 30 14 56q0 79 -67 79h-86v21h383v-21h-37q-39 0 -85 -28q-67 -40 -106 -121l-319 -664 q-92 -190 -230 -190q-56 0 -93.5 35t-37.5 80zM297 805q0 31 22.5 53.5t53.5 22.5t53.5 -22.5t22.5 -53.5t-22.5 -53.5t-53.5 -22.5t-53.5 22.5t-22.5 53.5zM570 805q0 31 22.5 53.5t52.5 22.5q31 0 53.5 -22.5t22.5 -53.5t-22.5 -53.5t-53.5 -22.5q-30 0 -52.5 22.5 t-22.5 53.5z" />
<glyph unicode="&#x152;" horiz-adv-x="2048" />
<glyph unicode="&#x153;" horiz-adv-x="2048" />
<glyph unicode="&#x178;" horiz-adv-x="1214" d="M25 1470v21h378v-21h-129l355 -665l295 516q24 43 24 65q0 84 -94 84h-43v21h381v-21h-43q-41 0 -93 -36q-61 -44 -104 -119l-311 -545v-750h137v-20h-383v20h137v721l-391 729h-116zM407 1702q0 31 22.5 53.5t53.5 22.5t53.5 -22.5t22.5 -53.5t-22.5 -53.5t-53.5 -22.5 t-53.5 22.5t-22.5 53.5zM680 1702q0 31 22.5 53.5t52.5 22.5q31 0 53.5 -22.5t22.5 -53.5t-22.5 -53.5t-53.5 -22.5q-30 0 -52.5 22.5t-22.5 53.5z" />
<glyph unicode="&#x2c6;" horiz-adv-x="524" d="M39 682l205 244h37l204 -244h-36l-187 106l-186 -106h-37z" />
<glyph unicode="&#x2dc;" horiz-adv-x="524" d="M72 750q27 110 104 110q31 0 87.5 -17.5t76.5 -17.5q68 0 88 35h27q-28 -110 -105 -110q-30 0 -87 17t-77 17q-68 0 -88 -34h-26z" />
<glyph unicode="&#x2000;" horiz-adv-x="965" />
<glyph unicode="&#x2001;" horiz-adv-x="1931" />
<glyph unicode="&#x2002;" horiz-adv-x="965" />
<glyph unicode="&#x2003;" horiz-adv-x="1931" />
<glyph unicode="&#x2004;" horiz-adv-x="643" />
<glyph unicode="&#x2005;" horiz-adv-x="482" />
<glyph unicode="&#x2006;" horiz-adv-x="321" />
<glyph unicode="&#x2007;" horiz-adv-x="321" />
<glyph unicode="&#x2008;" horiz-adv-x="241" />
<glyph unicode="&#x2009;" horiz-adv-x="386" />
<glyph unicode="&#x200a;" horiz-adv-x="107" />
<glyph unicode="&#x2010;" horiz-adv-x="530" d="M53 238v108h424v-108h-424z" />
<glyph unicode="&#x2011;" horiz-adv-x="530" d="M53 238v108h424v-108h-424z" />
<glyph unicode="&#x2012;" horiz-adv-x="530" d="M53 238v108h424v-108h-424z" />
<glyph unicode="&#x2013;" horiz-adv-x="2048" />
<glyph unicode="&#x2014;" horiz-adv-x="1821" d="M53 238v108h1714v-108h-1714z" />
<glyph unicode="&#x2018;" horiz-adv-x="303" d="M92 1395q0 41 22.5 68.5t53.5 27.5q61 0 61 -61q0 -66 -77 -66q-5 -8 -5 -21q0 -32 43 -75q-98 20 -98 127z" />
<glyph unicode="&#x2019;" horiz-adv-x="303" d="M84 1430q0 61 61 61q32 0 54 -27.5t22 -68.5q0 -107 -98 -127q43 43 43 75q0 13 -4 21q-78 0 -78 66z" />
<glyph unicode="&#x201c;" horiz-adv-x="645" d="M137 1395q0 41 22.5 68.5t53.5 27.5q61 0 61 -61q0 -66 -77 -66q-4 -8 -4 -21q0 -32 43 -75q-99 20 -99 127zM401 1395q0 41 22.5 68.5t53.5 27.5q62 0 62 -61q0 -66 -78 -66q-4 -8 -4 -21q0 -32 43 -75q-99 20 -99 127z" />
<glyph unicode="&#x201d;" horiz-adv-x="645" d="M137 1430q0 61 62 61q31 0 53 -27.5t22 -68.5q0 -107 -98 -127q43 43 43 75q0 13 -4 21q-78 0 -78 66zM401 1430q0 61 62 61q31 0 53.5 -27.5t22.5 -68.5q0 -107 -99 -127q43 43 43 75q0 13 -4 21q-78 0 -78 66z" />
<glyph unicode="&#x201e;" horiz-adv-x="524" d="M104 840q0 67 45.5 112t112.5 45q68 0 113 -45t45 -112q0 -68 -45 -113t-113 -45q-67 0 -112.5 45t-45.5 113zM174 840q0 -36 25.5 -62t60.5 -26q36 0 63 26.5t27 61.5t-27 61.5t-63 26.5q-35 0 -60.5 -26.5t-25.5 -61.5z" />
<glyph unicode="&#x2022;" d="M293 279q0 44 31 75t75 31t75.5 -32t31.5 -77q0 -42 -31.5 -73t-75.5 -31t-75 31.5t-31 75.5z" />
<glyph unicode="&#x2026;" horiz-adv-x="2048" />
<glyph unicode="&#x202f;" horiz-adv-x="386" />
<glyph unicode="&#x2039;" horiz-adv-x="303" d="M57 276l125 183h72l-125 -183l104 -182h-71z" />
<glyph unicode="&#x203a;" horiz-adv-x="303" d="M49 459h72l125 -183l-105 -182h-71l104 182z" />
<glyph unicode="&#x205f;" horiz-adv-x="482" />
<glyph unicode="&#x2122;" horiz-adv-x="2048" />
<glyph unicode="&#x25fc;" horiz-adv-x="555" d="M0 0v555h555v-555h-555z" />
</font>
</defs>
</svg>
